<svg width="8" height="14" viewBox="0 0 8 14" fill="none" xmlns="http://www.w3.org/2000/svg">
<path d="M7.10713 0.500161C7.23959 0.616949 7.3203 0.78152 7.33155 0.957752C7.34279 1.13399 7.28366 1.30748 7.16713 1.44016L2.22713 7.00016L7.16713 12.5602C7.27488 12.6939 7.32683 12.8642 7.31216 13.0353C7.29748 13.2065 7.21731 13.3653 7.08835 13.4788C6.95939 13.5923 6.7916 13.6516 6.61998 13.6444C6.44835 13.6372 6.28612 13.5641 6.16713 13.4402L0.833792 7.44016C0.726912 7.31851 0.667969 7.1621 0.667969 7.00016C0.667969 6.83823 0.726912 6.68182 0.833792 6.56016L6.16713 0.560162C6.28391 0.427703 6.44848 0.346992 6.62472 0.335743C6.80095 0.324494 6.97445 0.383626 7.10713 0.500161Z" fill="#474747"/>
</svg>
