<svg width="24" height="24" viewBox="0 0 24 24" fill="none" xmlns="http://www.w3.org/2000/svg">
<g clip-path="url(#clip0)">
<path d="M9 0.750488C9 2.40496 10.3455 3.75043 11.9999 3.75043C13.6529 3.75043 14.9999 2.40496 14.9999 0.750488H9Z" fill="#C90808"/>
<path d="M23.6218 3.84942L18.3719 0.849486C18.2594 0.784988 18.1304 0.750488 17.9999 0.750488H16.4999C16.4999 3.23144 14.4809 5.25039 12 5.25039C9.51906 5.25039 7.5001 3.23144 7.5001 0.750488H6.00013C5.86963 0.750488 5.74214 0.784988 5.62814 0.849486L0.378251 3.84942C0.0782578 4.02042 -0.0657391 4.37441 0.0287589 4.7059L1.52873 9.95579C1.63972 10.3458 2.04472 10.5753 2.43171 10.4778L4.50016 9.96179V22.5C4.50016 22.914 4.83616 23.25 5.25015 23.25H18.7499C19.1638 23.25 19.4998 22.914 19.4998 22.5V9.96179L21.5683 10.4778C21.9553 10.5768 22.3588 10.3458 22.4713 9.95579L23.9712 4.7059C24.0657 4.37441 23.9217 4.02042 23.6218 3.84942Z" fill="#C90808"/>
</g>
<defs>
<clipPath id="clip0">
<rect width="24" height="24" fill="white"/>
</clipPath>
</defs>
</svg>
