<svg width="16" height="16" viewBox="0 0 16 16" fill="none" xmlns="http://www.w3.org/2000/svg">
<path d="M1.50016 4.89336C1.61695 4.7609 1.78152 4.68019 1.95775 4.66894C2.13398 4.6577 2.30748 4.71683 2.44016 4.83336L8.00016 9.77336L13.5602 4.83336C13.6939 4.72561 13.8642 4.67365 14.0353 4.68833C14.2065 4.70301 14.3653 4.78318 14.4788 4.91214C14.5923 5.0411 14.6516 5.20888 14.6444 5.38051C14.6372 5.55214 14.5641 5.71437 14.4402 5.83336L8.44016 11.1667C8.31851 11.2736 8.1621 11.3325 8.00016 11.3325C7.83823 11.3325 7.68182 11.2736 7.56016 11.1667L1.56016 5.83336C1.4277 5.71658 1.34699 5.55201 1.33574 5.37577C1.32449 5.19954 1.38363 5.02604 1.50016 4.89336Z" fill="#474747"/>
</svg>
