<svg width="38" height="38" viewBox="0 0 38 38" fill="none" xmlns="http://www.w3.org/2000/svg">
<g clip-path="url(#clip0)">
<path d="M27.6741 10.4063C24.7497 7.73006 22.2239 5.41884 22.2239 1.48437C22.2239 0.943094 21.9294 0.444436 21.4551 0.1838C20.9805 -0.0771252 20.4018 -0.0591504 19.9446 0.230767C19.8767 0.273965 19.7979 0.323251 19.7092 0.379205C18.2341 1.30665 14.3155 3.77066 10.6968 7.49552C6.01201 12.3174 3.63672 17.3666 3.63672 22.5031C3.63672 30.8655 10.2695 37.7011 18.5309 37.9893C18.6617 37.9963 18.7933 38.0001 18.9258 38.0001C18.9507 38.0001 18.9754 37.9992 19.0003 37.9989C19.025 37.9992 19.0493 38.0001 19.074 38.0001C22.8933 38.0001 26.5617 36.5916 29.404 34.0346C30.0134 33.486 30.063 32.5476 29.5148 31.9382C28.9662 31.3288 28.0278 31.2792 27.4184 31.8274C26.9386 32.2591 26.4295 32.6496 25.8966 32.9981C26.141 32.2707 26.2735 31.4929 26.2735 30.6846C26.2735 27.8556 24.5891 26.2581 23.1029 24.8485C21.7044 23.5222 20.5998 22.4747 20.5998 20.4844C20.5998 19.906 20.2638 19.3801 19.739 19.1372C19.214 18.8942 18.5959 18.9786 18.1549 19.3529C17.8862 19.5807 11.5781 25.001 11.5781 30.6846C11.5781 31.3914 11.6796 32.075 11.8683 32.7221C8.68592 30.4497 6.60547 26.7162 6.60547 22.5031C6.60547 16.2348 11.181 9.72759 19.5416 4.03564C19.8669 5.43189 20.4711 6.75449 21.3637 8.03332C22.5657 9.75572 24.1437 11.1998 25.6699 12.5963C28.6754 15.3468 31.5143 17.945 31.5427 22.5124C31.5503 23.6912 31.3926 24.8578 31.0742 25.9795C30.8504 26.7684 31.3082 27.5891 32.0968 27.8126C32.8859 28.0368 33.7064 27.5787 33.9302 26.7901C34.3251 25.3985 34.5205 23.953 34.5115 22.4938C34.475 16.6299 30.8617 13.3234 27.6741 10.4063ZM14.5469 30.6846C14.5469 28.1655 16.5296 25.3434 18.2387 23.4384C18.9232 24.9764 20.0698 26.0639 21.0599 27.0026C22.4935 28.3623 23.3047 29.204 23.3047 30.6846C23.3047 33.0648 21.3672 35.0032 18.9757 35.0301C18.9081 35.0296 18.8406 35.029 18.7736 35.0275C18.76 35.027 18.7466 35.027 18.733 35.0264C18.7185 35.0261 18.704 35.0252 18.6895 35.0246C16.3844 34.9026 14.5469 33.0027 14.5469 30.6846Z" fill="white"/>
</g>
<defs>
<clipPath id="clip0">
<rect width="38" height="38" fill="white"/>
</clipPath>
</defs>
</svg>
