<svg width="88" height="88" viewBox="0 0 88 88" fill="none" xmlns="http://www.w3.org/2000/svg">
<g clip-path="url(#clip0)">
<path d="M33 2.75146C33 8.81784 37.9334 13.7512 43.9997 13.7512C50.0606 13.7512 54.9995 8.81784 54.9995 2.75146H33Z" fill="#000062"/>
<path d="M86.6131 14.1142L67.3635 3.11446C66.951 2.87796 66.478 2.75146 65.9995 2.75146H60.4997C60.4997 11.8483 53.0968 19.2511 44 19.2511C34.9032 19.2511 27.5004 11.8483 27.5004 2.75146H22.0005C21.522 2.75146 21.0545 2.87796 20.6365 3.11446L1.38692 14.1142C0.286945 14.7412 -0.241043 16.0392 0.105449 17.2547L5.60533 36.5042C6.01232 37.9342 7.49729 38.7757 8.91626 38.4182L16.5006 36.5262V82.4998C16.5006 84.0177 17.7326 85.2497 19.2505 85.2497H68.7495C70.2674 85.2497 71.4994 84.0177 71.4994 82.4998V36.5262L79.0838 38.4182C80.5027 38.7812 81.9822 37.9342 82.3947 36.5042L87.8946 17.2547C88.2411 16.0392 87.7131 14.7412 86.6131 14.1142Z" fill="#000062"/>
</g>
<defs>
<clipPath id="clip0">
<rect width="88" height="88" fill="white"/>
</clipPath>
</defs>
</svg>
