<svg width="84" height="84" viewBox="0 0 84 84" fill="none" xmlns="http://www.w3.org/2000/svg">
<path d="M80.6717 15.0898L57.6407 23.7638V17.3926C57.6407 15.6747 55.9204 14.4841 54.3124 15.0897L31.2813 23.7637V17.3924C31.2813 15.6745 29.5609 14.4839 27.953 15.0895L1.59354 25.0174C0.634758 25.3785 0 26.2958 0 27.3204V66.6099C0 67.9688 1.10184 69.0707 2.46094 69.0707H81.5391C82.8982 69.0707 84 67.9688 84 66.6099V17.3928C84 15.675 82.2796 14.4843 80.6717 15.0898ZM22.2031 50.2041C22.2031 51.5632 21.1012 52.6649 19.7421 52.6649H11.539C10.1799 52.6649 9.07807 51.5631 9.07807 50.2041V42.0013C9.07807 40.6422 10.1799 39.5406 11.539 39.5406H19.7421C21.1012 39.5406 22.2031 40.6424 22.2031 42.0013V50.2041ZM48.5625 50.2041C48.5625 51.5632 47.4607 52.6649 46.1016 52.6649H37.8984C36.5393 52.6649 35.4375 51.5631 35.4375 50.2041V42.0013C35.4375 40.6422 36.5393 39.5406 37.8984 39.5406H46.1016C47.4607 39.5406 48.5625 40.6424 48.5625 42.0013V50.2041ZM74.9219 50.2041C74.9219 51.5632 73.8201 52.6649 72.461 52.6649H64.2579C62.8988 52.6649 61.7969 51.5631 61.7969 50.2041V42.0013C61.7969 40.6422 62.8988 39.5406 64.2579 39.5406H72.461C73.8201 39.5406 74.9219 40.6424 74.9219 42.0013V50.2041Z" fill="#000062"/>
</svg>
