<svg width="84" height="84" viewBox="0 0 84 84" fill="none" xmlns="http://www.w3.org/2000/svg">
<path d="M61.6875 9.84375C60.7268 9.84375 59.8091 10.0302 58.9664 10.3654C58.1127 7.23285 55.2436 4.92188 51.8438 4.92188C50.8831 4.92188 49.9654 5.10837 49.1226 5.44354C48.269 2.31097 45.3998 0 42 0C38.6002 0 35.731 2.31097 34.8774 5.44354C34.0346 5.10837 33.1169 4.92188 32.1562 4.92188C28.0854 4.92188 24.7734 8.23389 24.7734 12.3047V25.0323C24.0031 24.7593 23.1751 24.6094 22.3125 24.6094C18.2417 24.6094 14.9297 27.9214 14.9297 31.9922V57.3334L24.7734 72.4272V84H69.0703V17.2266C69.0703 13.1558 65.7583 9.84375 61.6875 9.84375ZM29.6953 79.0781V74.1562H64.1484V79.0781H29.6953Z" fill="#000062"/>
<g clip-path="url(#clip0)">
<path d="M46.6562 34C41.7547 36.8242 42.3437 44.7812 42.3437 44.7812C42.3437 44.7812 40.1875 44.0625 40.1875 40.8281C37.615 42.3198 35.875 45.187 35.875 48.375C35.875 53.1385 39.7365 57 44.5 57C49.2635 57 53.125 53.1385 53.125 48.375C53.125 41.3672 46.6562 39.9297 46.6562 34Z" fill="white"/>
</g>
<defs>
<clipPath id="clip0">
<rect width="23" height="23" fill="white" transform="translate(33 34)"/>
</clipPath>
</defs>
</svg>
