<svg width="14" height="8" viewBox="0 0 14 8" fill="none" xmlns="http://www.w3.org/2000/svg">
<path d="M0.500161 0.893363C0.616949 0.760904 0.781519 0.680193 0.957752 0.668945C1.13398 0.657695 1.30748 0.716828 1.44016 0.833363L7.00016 5.77336L12.5602 0.833362C12.6939 0.725608 12.8642 0.673654 13.0353 0.688331C13.2065 0.703008 13.3653 0.783183 13.4788 0.91214C13.5923 1.0411 13.6516 1.20888 13.6444 1.38051C13.6372 1.55214 13.5641 1.71437 13.4402 1.83336L7.44016 7.1667C7.31851 7.27358 7.1621 7.33252 7.00016 7.33252C6.83823 7.33252 6.68182 7.27358 6.56016 7.1667L0.560161 1.83336C0.427702 1.71658 0.346991 1.55201 0.335742 1.37577C0.324494 1.19954 0.383625 1.02604 0.500161 0.893363Z" fill="#474747"/>
</svg>
