<svg width="28" height="28" viewBox="0 0 28 28" fill="none" xmlns="http://www.w3.org/2000/svg">
<path d="M0.447575 12.9121L10.5594 2.80011C10.848 2.51147 11.2327 2.35303 11.6429 2.35303C12.0536 2.35303 12.4381 2.51169 12.7267 2.80011L13.6448 3.71841C13.9332 4.00661 14.0921 4.39155 14.0921 4.80198C14.0921 5.21219 13.9332 5.61011 13.6448 5.8983L7.74572 11.8103H26.4873C27.3323 11.8103 28 12.4719 28 13.3171V14.6153C28 15.4606 27.3323 16.1888 26.4873 16.1888H7.67879L13.6446 22.1338C13.933 22.4225 14.0919 22.797 14.0919 23.2074C14.0919 23.6174 13.933 23.9973 13.6446 24.2857L12.7265 25.2011C12.4378 25.4897 12.0534 25.647 11.6427 25.647C11.2325 25.647 10.8478 25.4877 10.5591 25.199L0.447348 15.0872C0.158016 14.7977 -0.00110245 14.4111 3.62396e-05 14.0003C-0.000875473 13.588 0.158016 13.2012 0.447575 12.9121Z" fill="white"/>
</svg>
