<svg width="20" height="20" viewBox="0 0 20 20" fill="none" xmlns="http://www.w3.org/2000/svg">
<path d="M14.71 6.29C14.8037 6.38296 14.8781 6.49356 14.9289 6.61542C14.9797 6.73728 15.0058 6.86799 15.0058 7C15.0058 7.13201 14.9797 7.26272 14.9289 7.38458C14.8781 7.50644 14.8037 7.61704 14.71 7.71L8.71 13.71C8.61704 13.8037 8.50644 13.8781 8.38458 13.9289C8.26272 13.9797 8.13202 14.0058 8 14.0058C7.86799 14.0058 7.73729 13.9797 7.61543 13.9289C7.49357 13.8781 7.38297 13.8037 7.29 13.71L5.29 11.71C5.19676 11.6168 5.1228 11.5061 5.07234 11.3842C5.02188 11.2624 4.99591 11.1319 4.99591 11C4.99591 10.8681 5.02188 10.7376 5.07234 10.6158C5.1228 10.4939 5.19676 10.3832 5.29 10.29C5.38324 10.1968 5.49393 10.1228 5.61575 10.0723C5.73758 10.0219 5.86814 9.99591 6 9.99591C6.13186 9.99591 6.26243 10.0219 6.38425 10.0723C6.50608 10.1228 6.61677 10.1968 6.71 10.29L8 11.59L13.29 6.29C13.383 6.19627 13.4936 6.12188 13.6154 6.07111C13.7373 6.02034 13.868 5.9942 14 5.9942C14.132 5.9942 14.2627 6.02034 14.3846 6.07111C14.5064 6.12188 14.617 6.19627 14.71 6.29ZM20 10C20 11.9778 19.4135 13.9112 18.3147 15.5557C17.2159 17.2002 15.6541 18.4819 13.8268 19.2388C11.9996 19.9957 9.98891 20.1937 8.0491 19.8079C6.10929 19.422 4.32746 18.4696 2.92894 17.0711C1.53041 15.6725 0.578004 13.8907 0.192152 11.9509C-0.1937 10.0111 0.00433284 8.00043 0.761209 6.17317C1.51809 4.3459 2.79981 2.78412 4.4443 1.6853C6.08879 0.58649 8.02219 0 10 0C11.3132 0 12.6136 0.258658 13.8268 0.761205C15.0401 1.26375 16.1425 2.00035 17.0711 2.92893C17.9997 3.85752 18.7362 4.95991 19.2388 6.17317C19.7413 7.38642 20 8.68678 20 10ZM18 10C18 8.41775 17.5308 6.87103 16.6518 5.55544C15.7727 4.23984 14.5233 3.21447 13.0615 2.60896C11.5997 2.00346 9.99113 1.84504 8.43928 2.15372C6.88743 2.4624 5.46197 3.22433 4.34315 4.34315C3.22433 5.46197 2.4624 6.88743 2.15372 8.43928C1.84504 9.99113 2.00347 11.5997 2.60897 13.0615C3.21447 14.5233 4.23985 15.7727 5.55544 16.6518C6.87103 17.5308 8.41775 18 10 18C12.1217 18 14.1566 17.1571 15.6569 15.6569C17.1571 14.1566 18 12.1217 18 10Z" fill="#C90707"/>
</svg>
