<svg width="20" height="20" viewBox="0 0 20 20" fill="none" xmlns="http://www.w3.org/2000/svg">
<path d="M0.319696 9.22288L7.54239 2.00001C7.74857 1.79383 8.02336 1.68066 8.31637 1.68066C8.6097 1.68066 8.88433 1.794 9.09051 2.00001L9.74627 2.65594C9.95229 2.86179 10.0658 3.13675 10.0658 3.42992C10.0658 3.72292 9.95229 4.00715 9.74627 4.213L5.53266 8.43589H18.9195C19.5231 8.43589 20 8.90841 20 9.51215V10.4395C20 11.0432 19.5231 11.5633 18.9195 11.5633H5.48485L9.74611 15.8098C9.95213 16.016 10.0656 16.2835 10.0656 16.5766C10.0656 16.8695 9.95213 17.1409 9.74611 17.3469L9.09035 18.0007C8.88417 18.2069 8.60954 18.3192 8.31621 18.3192C8.0232 18.3192 7.74841 18.2054 7.54223 17.9992L0.319534 10.7765C0.112869 10.5697 -0.000787735 10.2936 2.47955e-05 10.0001C-0.00062561 9.70564 0.112869 9.42938 0.319696 9.22288Z" fill="#474747"/>
</svg>
