<svg width="28" height="28" viewBox="0 0 28 28" fill="none" xmlns="http://www.w3.org/2000/svg">
<path d="M27.5524 12.9121L17.4406 2.80011C17.152 2.51147 16.7673 2.35303 16.3571 2.35303C15.9464 2.35303 15.5619 2.51169 15.2733 2.80011L14.3552 3.71841C14.0668 4.00661 13.9079 4.39155 13.9079 4.80198C13.9079 5.21219 14.0668 5.61011 14.3552 5.8983L20.2543 11.8103H1.51267C0.667669 11.8103 0 12.4719 0 13.3171V14.6153C0 15.4606 0.667669 16.1888 1.51267 16.1888H20.3212L14.3554 22.1338C14.067 22.4225 13.9081 22.797 13.9081 23.2074C13.9081 23.6174 14.067 23.9973 14.3554 24.2857L15.2735 25.2011C15.5622 25.4897 15.9466 25.647 16.3573 25.647C16.7675 25.647 17.1522 25.4877 17.4409 25.199L27.5527 15.0872C27.842 14.7977 28.0011 14.4111 28 14.0003C28.0009 13.588 27.842 13.2012 27.5524 12.9121Z" fill="white"/>
</svg>
