<svg width="12" height="10" viewBox="0 0 12 10" fill="none" xmlns="http://www.w3.org/2000/svg">
<path d="M11.8082 4.53363L7.47456 0.199909C7.35086 0.0762026 7.18598 0.00830078 7.01018 0.00830078C6.83418 0.00830078 6.6694 0.0763002 6.54569 0.199909L6.15223 0.593467C6.02863 0.716978 5.96053 0.881952 5.96053 1.05785C5.96053 1.23366 6.02863 1.40419 6.15223 1.5277L8.68041 4.06144H0.648287C0.286144 4.06144 0 4.34495 0 4.70719V5.26357C0 5.62582 0.286144 5.93791 0.648287 5.93791H8.70909L6.15233 8.48579C6.02872 8.6095 5.96063 8.76999 5.96063 8.94589C5.96063 9.12159 6.02872 9.28442 6.15233 9.40803L6.54579 9.80032C6.6695 9.92402 6.83428 9.99144 7.01028 9.99144C7.18608 9.99144 7.35096 9.92315 7.47466 9.79944L11.8083 5.46582C11.9323 5.34172 12.0005 5.17606 12 4.99997C12.0004 4.82329 11.9323 4.65753 11.8082 4.53363Z" fill="white"/>
</svg>
