<svg width="24" height="24" viewBox="0 0 24 24" fill="none" xmlns="http://www.w3.org/2000/svg">
<g clip-path="url(#clip0)">
<path d="M23.979 13.5H21.328C20.934 13.5 20.547 13.66 20.268 13.939L18.707 15.5H23.926C23.9701 15.03 24.0001 14.524 24.0001 14C24 13.825 23.988 13.665 23.979 13.5Z" fill="#474747"/>
<path d="M7.56689 13.5L9.23391 15.5H14.7659L16.4329 13.5H7.56689Z" fill="#474747"/>
<path d="M3.732 13.939C3.453 13.66 3.066 13.5 2.67202 13.5H0.021C0.012 13.665 0 13.825 0 14C0 14.524 0.03 15.03 0.0740156 15.5H5.29303L3.732 13.939Z" fill="#474747"/>
<path d="M17.0379 16.191C16.9609 16.004 17.0039 15.789 17.1459 15.646L19.5599 13.232C20.033 12.76 20.66 12.5 21.3279 12.5H23.8699C23.6039 11.11 22.9159 10.176 21.7309 9.55698C20.3529 8.836 17.2599 8.5 11.9999 8.5C6.73987 8.5 3.64691 8.836 2.26888 9.55698C1.08388 10.176 0.395898 11.11 0.129883 12.5H2.67187C3.33988 12.5 3.96688 12.76 4.43985 13.232L6.85387 15.646C6.99688 15.789 7.03987 16.004 6.96187 16.191C6.88387 16.378 6.70195 16.5 6.49996 16.5H0.197945C0.338945 17.439 0.50493 18.084 0.51693 18.129C0.574914 18.348 0.772914 18.5 0.99993 18.5H5.38195L7.27696 19.447C7.34596 19.4821 7.42298 19.5001 7.49995 19.5001H16.4999C16.577 19.5001 16.6539 19.4821 16.724 19.447L18.619 18.5H23C23.227 18.5 23.425 18.348 23.483 18.129C23.495 18.084 23.6609 17.439 23.8019 16.5H17.4999C17.2979 16.5 17.1149 16.378 17.0379 16.191ZM15.3839 16.32C15.2889 16.434 15.1479 16.5 14.9999 16.5H8.99994C8.85196 16.5 8.71096 16.434 8.61594 16.32L6.11596 13.32C5.99095 13.171 5.96498 12.963 6.04696 12.788C6.12998 12.612 6.30595 12.5 6.49996 12.5H17.5C17.694 12.5 17.87 12.612 17.953 12.788C18.035 12.963 18.009 13.171 17.884 13.32L15.3839 16.32Z" fill="#474747"/>
<path d="M21.9589 9.80102C21.3899 8.49302 19.4859 4.18202 18.8239 3.619C17.9989 2.91798 15.6359 2.5 12.4999 2.5H11.4999C8.36396 2.5 6.00095 2.91798 5.17595 3.61802C4.51393 4.18103 2.60893 8.49203 2.04095 9.80003C1.93196 10.054 2.04793 10.348 2.30096 10.458C2.55296 10.568 2.84898 10.453 2.95895 10.199C4.08793 7.60005 5.46896 4.71203 5.82395 4.38105C6.20893 4.05405 7.83793 3.50003 11.4999 3.50003H12.4999C16.1619 3.50003 17.7909 4.05405 18.1739 4.37903C18.5309 4.71203 19.9119 7.59902 21.0409 10.199C21.1229 10.388 21.3079 10.5 21.4999 10.5C21.5659 10.5 21.6349 10.487 21.6989 10.459C21.9519 10.349 22.0679 10.054 21.9589 9.80102Z" fill="#474747"/>
<path d="M6.50003 18C6.24104 18 6.03601 18.199 6.01004 18.451L2.00003 18.05V18C2.00003 17.724 1.77601 17.5 1.50002 17.5C1.22402 17.5 1 17.724 1 18V20C1 20.827 1.67298 21.5 2.5 21.5H5.5C6.32701 21.5 6.99999 20.827 6.99999 20V18.5C6.99999 18.224 6.77603 18 6.50003 18Z" fill="#474747"/>
<path d="M22.5 17.5C22.224 17.5 22 17.724 22 18V18.05L17.99 18.451C17.964 18.199 17.759 18.0001 17.5 18.0001C17.224 18.0001 17 18.2241 17 18.5001V20.0001C17 20.8271 17.673 21.5001 18.5 21.5001H21.5C22.327 21.5001 23 20.8271 23 20.0001V18C23 17.724 22.776 17.5 22.5 17.5Z" fill="#474747"/>
</g>
<defs>
<clipPath id="clip0">
<rect width="24" height="24" fill="white"/>
</clipPath>
</defs>
</svg>
