<svg width="24" height="24" viewBox="0 0 24 24" fill="none" xmlns="http://www.w3.org/2000/svg">
<g clip-path="url(#clip0)">
<path d="M19.669 14.1277C20.3092 13.6431 20.6084 12.9636 20.6084 12.2607C20.6084 11.3042 20.032 10.4053 19.0432 10.0552V8.34772H22.9562C23.5391 8.34772 23.9154 7.73328 23.6563 7.21507L22.0911 4.08466C21.9586 3.81944 21.6876 3.6573 21.391 3.6573H9.65198V2.3478C9.65198 2.08614 9.52101 1.84187 9.30346 1.69666L6.95568 0.131449C6.69275 -0.0438165 6.35038 -0.0438165 6.08746 0.131449L3.73967 1.69666C3.52212 1.84187 3.39116 2.08619 3.39116 2.3478V3.65735H1.04332C0.611274 3.65735 0.260742 4.00244 0.260742 4.43472V7.56514C0.260742 7.99747 0.611274 8.34772 1.04332 8.34772H3.39111V22.4398H2.60853C2.17648 22.4398 1.82595 22.7849 1.82595 23.2172C1.82595 23.6495 2.17648 23.9997 2.60853 23.9997C4.31895 23.9997 8.74593 23.9997 10.4346 23.9997C10.8666 23.9997 11.2171 23.6494 11.2171 23.2172C11.2171 22.7849 10.8666 22.4398 10.4346 22.4398H9.65198V8.34772H17.478V10.6955C17.478 11.1278 17.8285 11.4781 18.2606 11.4781C18.6937 11.4781 19.0432 11.8293 19.0432 12.2607C19.0432 13.2842 17.478 13.291 17.478 12.2607C17.478 11.8284 17.1274 11.4781 16.6954 11.4781C16.2633 11.4781 15.9128 11.8284 15.9128 12.2607C15.9128 12.9643 16.2107 13.6417 16.8522 14.1276L13.0123 17.9677C12.8784 18.1015 12.7824 18.3155 12.7824 18.5215V23.2172C12.7824 23.6495 13.133 23.9997 13.565 23.9997H22.9535C22.9543 23.9997 22.955 24 22.9557 24C22.9576 24 22.9594 23.9992 22.9613 23.9992C23.3947 23.9964 23.7389 23.6342 23.7389 23.2172V18.5215C23.7389 18.3022 23.6366 18.095 23.5091 17.9677L19.669 14.1277ZM4.95641 11.0196L7.76277 13.826L4.95641 16.6323V11.0196ZM4.95641 22.4398V20.4108L6.98015 22.4398H4.95641ZM8.08682 21.3279L5.28046 18.5215L8.08682 15.7152V21.3279ZM8.08682 11.9367L5.28046 9.13034L8.08682 6.32398V11.9367ZM8.08682 4.11068L4.95641 7.24109C4.95641 5.67199 4.95641 4.40786 4.95641 2.76658L6.52161 1.72309L8.08682 2.76658V4.11068ZM15.4543 17.7442L18.2606 14.9326L21.067 17.7442H15.4543Z" fill="#474747"/>
</g>
<defs>
<clipPath id="clip0">
<rect width="24" height="24" fill="white"/>
</clipPath>
</defs>
</svg>
