<svg width="28" height="28" viewBox="0 0 28 28" fill="none" xmlns="http://www.w3.org/2000/svg">
<g clip-path="url(#clip0)">
<path d="M27.0163 19.0077L24.1325 16.1239C23.4715 15.4629 22.5755 15.0838 21.6743 15.0838C20.8576 15.0838 20.1025 15.3892 19.5481 15.9437L17.926 17.5657C17.6016 17.8902 17.1674 18.0689 16.7037 18.069C16.2399 18.069 15.8058 17.8902 15.4812 17.5657L10.4348 12.5192C9.7608 11.8452 9.7608 10.7485 10.4348 10.0745L12.0569 8.45241C12.655 7.85426 12.9587 7.03814 12.9121 6.15421C12.8673 5.30287 12.4995 4.4909 11.8766 3.86804L8.99285 0.98411C8.35845 0.349762 7.51236 0.000488281 6.61049 0.000488281C5.70852 0.000488281 4.86243 0.349872 4.22813 0.984219L2.42566 2.78653C1.34059 3.8716 0.608251 5.23654 0.248806 6.84346C-0.0901872 8.35911 -0.08275 10.0242 0.270953 11.7925C0.983173 15.3537 3.02862 18.9682 6.03045 21.97C9.80553 25.745 14.5905 27.9989 18.8302 27.9991H18.8308C21.4204 27.9991 23.628 27.1606 25.2139 25.5746L27.0162 23.7724C27.6507 23.138 28 22.292 28.0001 21.39C28 20.4881 27.6507 19.642 27.0163 19.0077ZM25.8562 22.6124L24.0539 24.4146C22.7821 25.6864 20.9761 26.3586 18.8308 26.3586C18.8307 26.3586 18.8304 26.3586 18.8303 26.3586C15.016 26.3584 10.6647 24.2841 7.19048 20.81C4.41521 18.0347 2.52907 14.718 1.87968 11.4708C1.25436 8.34418 1.86021 5.6721 3.58569 3.94657L5.38812 2.1442C5.71262 1.81964 6.14671 1.64099 6.61044 1.64099C7.07411 1.64099 7.50826 1.8197 7.83276 2.14415L10.7165 5.02808C11.0523 5.36395 11.2503 5.79449 11.2738 6.24045C11.2955 6.65387 11.1616 7.02742 10.8967 7.29232L9.27464 8.91444C7.96105 10.228 7.96105 12.3655 9.27464 13.6792L14.3212 18.7257C14.9556 19.3601 15.8017 19.7095 16.7037 19.7095C17.6056 19.7094 18.4516 19.36 19.086 18.7257L20.7081 17.1037C20.9527 16.859 21.2958 16.7243 21.6742 16.7243C22.1436 16.7243 22.6168 16.9282 22.9725 17.2838L25.8562 20.1676C26.1807 20.4922 26.3594 20.9262 26.3594 21.3899C26.3594 21.8537 26.1807 22.2878 25.8562 22.6124Z" fill="#000062"/>
</g>
<defs>
<clipPath id="clip0">
<rect width="28" height="28" fill="white"/>
</clipPath>
</defs>
</svg>
