<svg width="12" height="12" viewBox="0 0 12 12" fill="none" xmlns="http://www.w3.org/2000/svg">
<path d="M0.191818 5.53363L4.52544 1.19991C4.64914 1.0762 4.81402 1.0083 4.98982 1.0083C5.16582 1.0083 5.3306 1.0763 5.45431 1.19991L5.84777 1.59347C5.97137 1.71698 6.03947 1.88195 6.03947 2.05785C6.03947 2.23366 5.97137 2.40419 5.84777 2.5277L3.31959 5.06144H11.3517C11.7139 5.06144 12 5.34495 12 5.70719V6.26357C12 6.62582 11.7139 6.93791 11.3517 6.93791H3.29091L5.84767 9.48579C5.97128 9.6095 6.03937 9.76999 6.03937 9.94589C6.03937 10.1216 5.97128 10.2844 5.84767 10.408L5.45421 10.8003C5.3305 10.924 5.16572 10.9914 4.98972 10.9914C4.81392 10.9914 4.64904 10.9231 4.52534 10.7994L0.191721 6.46582C0.0677223 6.34172 -0.000472069 6.17606 1.52588e-05 5.99997C-0.000374794 5.82329 0.0677223 5.65753 0.191818 5.53363Z" fill="white"/>
</svg>
