<svg width="24" height="24" viewBox="0 0 24 24" fill="none" xmlns="http://www.w3.org/2000/svg">
<g clip-path="url(#clip0)">
<path d="M5.43383 19.1792H3.80225V20.1977H5.43383V19.1792Z" fill="#474747"/>
<path d="M8.49144 19.1792H6.85986V20.1977H8.49144V19.1792Z" fill="#474747"/>
<path d="M11.5491 19.1792H9.91748V20.1977H11.5491V19.1792Z" fill="#474747"/>
<path d="M16.9307 13.914V12.3167V10.8908L11.2871 13.9141V12.3167V10.8909L5.64362 13.9142V12.3168V10.8909L0 13.914V23.9999H24V10.127L16.9307 13.914ZM12.975 21.6234H2.37647V17.7533H12.975V21.6234Z" fill="#474747"/>
<path d="M18.3563 11.5329L21.4835 9.85765L21.0466 0H15.8329L15.3853 10.1012L18.3563 8.50956V9.93546V11.5329Z" fill="#474747"/>
<path d="M12.7128 11.5329L14.6149 10.5139L14.3496 3.4751H10.8014L10.5684 9.65839L12.7128 8.50958V9.93547V11.5329Z" fill="#474747"/>
</g>
<defs>
<clipPath id="clip0">
<rect width="24" height="24" fill="white"/>
</clipPath>
</defs>
</svg>
